<svg id="color" enable-background="new 0 0 24 24" height="512" viewBox="0 0 24 24" width="512" xmlns="http://www.w3.org/2000/svg"><path d="m15.25 0h-12.5c-1.52 0-2.75 1.23-2.75 2.75v5.25h18v-5.25c0-1.52-1.23-2.75-2.75-2.75z" fill="#2196f3"/><path d="m0 8v8h9.14c.7-3.98 4.18-7 8.36-7 .17 0 .33 0 .5.01v-1.01z" fill="#64b5f6"/><path d="m9 17.5c0-.51.05-1.01.14-1.5h-9.14v5.25c0 1.52 1.23 2.75 2.75 2.75h9.27c-1.85-1.56-3.02-3.9-3.02-6.5z" fill="#2196f3"/><path d="m9.083 0h-6.333c-1.52 0-2.75 1.23-2.75 2.75v5.25h9.083z" fill="#1d83d4"/><path d="m9.083 8h-9.083v8h9.083z" fill="#579ed6"/><path d="m9.083 16.346c-.054.379-.083.764-.083 1.154 0 .405.028.804.083 1.195z" fill="#dedede"/><path d="m9.083 16h-9.083v5.25c0 1.52 1.23 2.75 2.75 2.75h6.334v-5.305c-.056-.391-.084-.79-.084-1.195 0-.39.029-.775.083-1.154z" fill="#1d83d4"/><circle cx="12.5" cy="4.5" fill="#fff" r="1.5"/><circle cx="5.5" cy="4.5" fill="#fff" r="1.5"/><path d="m5.5 3c-.829 0-1.5.672-1.5 1.5s.671 1.5 1.5 1.5z" fill="#dedede"/><path d="m12.5 3c-.829 0-1.5.672-1.5 1.5s.671 1.5 1.5 1.5z" fill="#dedede"/><path d="m17.5 11c-3.584 0-6.5 2.916-6.5 6.5s2.916 6.5 6.5 6.5 6.5-2.916 6.5-6.5-2.916-6.5-6.5-6.5z" fill="#ffc107"/><path d="m19.707 19.707c-.195.195-.451.293-.707.293s-.512-.098-.707-.293l-1.5-1.5c-.188-.187-.293-.441-.293-.707v-2.5c0-.553.448-1 1-1s1 .447 1 1v2.086l1.207 1.207c.391.391.391 1.023 0 1.414z" fill="#fff"/><path d="m17.5 11c-3.584 0-6.5 2.916-6.5 6.5s2.916 6.5 6.5 6.5v-5.086l-.707-.707c-.188-.187-.293-.441-.293-.707v-2.5c0-.553.448-1 1-1z" fill="#dea806"/><path d="m17.5 14c-.552 0-1 .447-1 1v2.5c0 .266.106.52.293.707l.707.707z" fill="#dedede"/></svg>