<?xml version="1.0" encoding="UTF-8" standalone="no"?>
<svg
   xmlns:dc="http://purl.org/dc/elements/1.1/"
   xmlns:cc="http://creativecommons.org/ns#"
   xmlns:rdf="http://www.w3.org/1999/02/22-rdf-syntax-ns#"
   xmlns:svg="http://www.w3.org/2000/svg"
   xmlns="http://www.w3.org/2000/svg"
   xmlns:sodipodi="http://sodipodi.sourceforge.net/DTD/sodipodi-0.dtd"
   xmlns:inkscape="http://www.inkscape.org/namespaces/inkscape"
   id="svg"
   version="1.1"
   width="400"
   height="400"
   viewBox="0, 0, 400,400"
   sodipodi:docname="spring-security.svg"
   inkscape:version="1.0.2 (e86c870879, 2021-01-15, custom)">
  <metadata
     id="metadata10">
    <rdf:RDF>
      <cc:Work
         rdf:about="">
        <dc:format>image/svg+xml</dc:format>
        <dc:type
           rdf:resource="http://purl.org/dc/dcmitype/StillImage" />
      </cc:Work>
    </rdf:RDF>
  </metadata>
  <defs
     id="defs8" />
  <sodipodi:namedview
     pagecolor="#ffffff"
     bordercolor="#666666"
     borderopacity="1"
     objecttolerance="10"
     gridtolerance="10"
     guidetolerance="10"
     inkscape:pageopacity="0"
     inkscape:pageshadow="2"
     inkscape:window-width="1711"
     inkscape:window-height="948"
     id="namedview6"
     showgrid="false"
     inkscape:zoom="2.2"
     inkscape:cx="151.746"
     inkscape:cy="227.63704"
     inkscape:window-x="84"
     inkscape:window-y="73"
     inkscape:window-maximized="0"
     inkscape:current-layer="svgg"
     inkscape:document-rotation="0" />
  <g
     id="svgg">
    <path
       style="opacity:1;fill:#6cb43d;fill-opacity:1;stroke:none;stroke-width:0.454545"
       d="m 195.95838,321.19116 c -9.43662,-5.14476 -24.7959,-15.55839 -33.23183,-22.53128 -6.74352,-5.57399 -21.47853,-20.35962 -26.07033,-26.15988 -5.43641,-6.86715 -9.42954,-13.10779 -13.38938,-20.92554 -4.17014,-8.23292 -6.07338,-13.04561 -7.90556,-19.99066 -2.67217,-10.12911 -2.91643,-12.87883 -3.11854,-35.10653 l -0.18496,-20.34091 h 23.44216 23.44216 v -2.8911 c 0,-1.59011 -0.13008,-3.84011 -0.28905,-5 l -0.28906,-2.1089 h -23.12293 -23.12293 l 0.11653,-33.95527 0.11653,-33.955276 20.22727,-4.848231 c 11.125,-2.666527 30.55682,-7.331912 43.18182,-10.367521 12.625,-3.03561 23.77273,-5.514848 24.77273,-5.509417 1,0.0054 10.30682,2.053978 20.68182,4.552328 10.375,2.49835 24.48863,5.876022 31.36363,7.505937 6.875,1.629915 17.71591,4.241145 24.09091,5.802732 l 11.59091,2.839251 0.26339,33.626827 c 0.14486,18.49475 0.18393,33.78023 0.0868,33.96773 -0.0971,0.1875 -10.59633,0.34091 -23.33157,0.34091 h -23.15499 v 4.70418 4.70416 l 4.43182,0.29348 c 2.4375,0.16142 12.86931,0.29454 23.18181,0.29583 l 18.75,0.002 v 18.58821 c 0,24.49364 -0.57915,29.76935 -4.63081,42.18407 -3.0226,9.26155 -10.67833,23.8488 -16.65146,31.72772 -9.89083,13.04663 -24.08156,26.7388 -39.02309,37.65214 -10.14189,7.40765 -25.63815,16.67207 -27.86599,16.65965 -0.63076,-0.004 -2.59177,-0.79416 -4.35782,-1.75699 z M 209.39357,201.5909 c 11.06711,-3.76249 19.37471,-12.46929 22.11893,-23.18181 0.98184,-3.83275 0.9646,-10.67654 -0.0365,-14.46848 -3.46816,-13.1373 -14.23963,-22.90928 -27.14561,-24.62675 -9.39427,-1.25014 -20.04439,2.71264 -27.01306,10.05122 -3.10748,3.27242 -4.5173,5.49924 -6.59765,10.42103 -1.31552,3.11231 -1.4546,3.92192 -1.66649,9.70071 -0.26472,7.21939 0.15504,9.81422 2.36244,14.60409 1.50057,3.2561 5.57417,8.70064 8.71948,11.65395 2.15025,2.01899 8.22444,5.21346 12.08969,6.35807 4.02292,1.19129 12.9408,0.92533 17.16872,-0.51203 z"
       id="path849" />
    <path
       style="opacity:1;fill:#6cb43d;fill-opacity:1;stroke:none;stroke-width:0.454545"
       d="m 42.123918,369.17779 c 0,-21.75479 0.01436,-21.87204 2.569431,-20.97592 1.002429,0.35157 1.348722,0.81038 1.536021,2.03511 0.28166,1.84173 0.548861,1.8414 3.459217,-0.004 5.172008,-3.27999 10.356946,-3.00849 14.109776,0.73882 5.054454,5.04702 4.930156,18.86421 -0.219214,24.3681 -1.404007,1.50067 -5.374292,3.06949 -7.76809,3.06949 -2.048582,0 -4.35473,-0.72194 -6.030037,-1.8877 -1.479285,-1.02937 -2.470832,-1.07153 -2.835746,-0.12058 -0.151747,0.39545 -0.275904,3.36136 -0.275904,6.59091 v 5.87192 h -2.272727 -2.272727 z m 16.363636,3.86152 c 0.625,-0.44761 1.647727,-1.82593 2.272727,-3.06293 0.986424,-1.95234 1.136364,-2.84887 1.136364,-6.79456 0,-9.54564 -3.693704,-13.17068 -10.144616,-9.95606 -1.751274,0.8727 -2.68728,1.72415 -3.591479,3.26705 -1.102852,1.88187 -1.224924,2.53578 -1.243408,6.6606 -0.0246,5.48855 0.539602,7.09243 3.11216,8.84716 3.56961,2.4348 6.078662,2.74293 8.458252,1.03874 z"
       id="path853" />
    <path
       style="opacity:1;fill:#6cb43d;fill-opacity:1;stroke:none;stroke-width:0.454545"
       d="m 75.760281,364.62718 c 0,-7.35745 0.131357,-14.03396 0.291905,-14.8367 0.328783,-1.64392 1.00818,-2.06452 2.663657,-1.64902 0.934061,0.23443 1.135347,0.56071 1.135347,1.84037 0,0.85549 0.214794,1.68818 0.477318,1.85043 0.262525,0.16225 1.481035,-0.64386 2.7078,-1.79136 1.962902,-1.83607 2.474651,-2.08635 4.265818,-2.08635 1.119436,0 2.560017,0.19948 3.201292,0.44329 1.014472,0.3857 1.165954,0.7105 1.165954,2.5 v 2.05671 H 88.626916 85.58446 l -2.412089,2.49034 -2.41209,2.49035 -0.04531,8.75965 c -0.02492,4.81781 -0.186561,9.27102 -0.359202,9.89602 -0.270043,0.97762 -0.612955,1.15572 -2.454691,1.2749 l -2.140798,0.13855 z"
       id="path855" />
    <path
       style="opacity:1;fill:#6cb43d;fill-opacity:1;stroke:none;stroke-width:0.454545"
       d="m 98.033009,364.60227 c 0,-7.34375 0.128371,-13.99413 0.28527,-14.77862 0.308421,-1.54211 1.615204,-2.19278 3.318291,-1.65224 0.92732,0.29432 0.94189,0.527 0.94189,15.04104 v 14.7421 h -2.27272 -2.272731 z"
       id="path857" />
    <path
       style="opacity:1;fill:#6cb43d;fill-opacity:1;stroke:none;stroke-width:0.454545"
       d="m 98.074002,341.53019 c -2.116316,-2.27159 -0.721749,-4.61106 2.619138,-4.39375 1.78597,0.11616 2.15598,0.30967 2.50599,1.31054 0.28438,0.8132 0.21615,1.58189 -0.22188,2.5 -0.85543,1.79296 -3.484824,2.10571 -4.903248,0.58321 z"
       id="path859" />
    <path
       style="opacity:1;fill:#6cb43d;fill-opacity:1;stroke:none;stroke-width:0.454545"
       d="m 112.57846,363.69259 c 0,-12.40255 0.0952,-14.40466 0.71429,-15.02376 1.46404,-1.46404 3.83117,-0.35722 3.83117,1.79136 0,1.45875 0.62613,1.74224 1.56257,0.70749 1.48718,-1.64332 5.25535,-2.91692 8.73565,-2.95256 2.9851,-0.0306 3.39656,0.0829 5,1.37853 0.96098,0.7765 2.10524,2.02276 2.5428,2.76945 1.22244,2.0861 1.75739,7.71722 1.61069,16.95508 l -0.13353,8.40909 h -2.27273 -2.27272 L 131.64238,367.5 c -0.26795,-10.77749 -0.37719,-11.35221 -2.61359,-13.75 -2.22945,-2.39034 -7.01151,-1.26319 -10.41865,2.45573 -0.97719,1.0666 -1.01821,1.47504 -1.13637,11.31404 l -0.12258,10.2075 -2.38636,0.13739 -2.38637,0.13739 z"
       id="path861" />
    <path
       style="opacity:1;fill:#6cb43d;fill-opacity:1;stroke:none;stroke-width:0.454545"
       d="m 150.30574,388.68764 c -4.34566,-0.9636 -6.25143,-2.42323 -6.96839,-5.3371 -0.3799,-1.54398 0.60017,-4.76894 2.13531,-7.02632 0.98137,-1.44308 1.09377,-1.86455 0.59561,-2.23331 -1.89027,-1.39928 -2.1838,-4.78398 -0.6766,-7.80186 0.96819,-1.93861 0.97426,-2.05028 0.22502,-4.14069 -1.47946,-4.12782 -0.64154,-8.32758 2.22818,-11.16784 2.69149,-2.66386 3.34116,-2.81156 11.7011,-2.66025 8.62562,0.15613 9.85068,0.42217 9.85068,2.13918 0,0.9416 -0.38001,1.32666 -1.99062,2.01704 l -1.99061,0.85328 0.43428,2.38936 c 0.81341,4.47526 -1.19703,9.10757 -4.74902,10.94235 -2.12387,1.09709 -5.15407,1.30293 -9.54494,0.64841 l -2.61364,-0.3896 v 1.86477 c 0,2.46987 0.58917,2.7408 7.16643,3.29551 9.83609,0.82955 12.38656,2.27442 12.74427,7.21977 0.16615,2.29698 0.0198,3.01114 -0.95966,4.68243 -2.51141,4.2854 -10.20154,6.34261 -17.5874,4.70487 z m 9.85677,-3.94383 c 4.90815,-1.85443 4.99295,-6.62399 0.14323,-8.05621 -4.87049,-1.43836 -9.04226,-0.9706 -11.01279,1.2348 -2.31687,2.59303 -1.38539,5.52146 2.14915,6.75659 1.80943,0.63229 7.1141,0.67172 8.72041,0.0648 z m -0.76258,-22.64696 c 1.9629,-2.06344 2.46526,-3.93167 1.68976,-6.28408 -0.77368,-2.34686 -2.99698,-3.76732 -5.89663,-3.76732 -1.95386,0 -2.45495,0.20399 -3.79641,1.54546 -1.30319,1.30319 -1.54546,1.86859 -1.54546,3.60677 0,4.37807 1.93083,6.65994 5.63856,6.6637 2.00027,0.002 2.40226,-0.17938 3.91018,-1.76453 z"
       id="path863" />
    <path
       style="opacity:1;fill:#6cb43d;fill-opacity:1;stroke:none;stroke-width:0.454545"
       d="m 18.260281,377.75127 c -2.34097,-0.86479 -3.493915,-2.28234 -3.318386,-4.07995 0.15938,-1.63221 0.407456,-1.64721 4.227477,-0.25566 3.916792,1.42679 7.181355,1.11534 8.939994,-0.85292 0.708004,-0.7924 1.287279,-1.83089 1.287279,-2.30776 0,-1.5572 -2.327607,-3.68183 -6.085365,-5.5547 -5.59395,-2.78803 -8.005544,-5.43629 -8.005544,-8.79119 0,-4.94558 5.30601,-8.41869 12.011992,-7.86257 3.343285,0.27725 4.983044,1.45075 5.174537,3.70318 0.161637,1.90125 -0.246402,2.0438 -2.798237,0.97757 -1.942339,-0.81156 -5.867287,-0.8943 -7.259083,-0.15302 -2.160878,1.15089 -2.750345,3.38213 -1.402064,5.30707 0.39993,0.57098 2.598794,1.95902 4.886364,3.08452 4.792451,2.35793 5.706707,3.03272 7.310019,5.39533 2.439498,3.59481 0.984415,8.08001 -3.383871,10.43058 -2.040856,1.09819 -3.135875,1.36349 -6.125994,1.4842 -2.420898,0.0977 -4.250189,-0.0781 -5.459118,-0.52468 z"
       id="path865" />
    <path
       style="opacity:1;fill:#6cb43d;fill-opacity:1;stroke:none;stroke-width:0.454545"
       d="m 192.42173,377.74607 c -2.3851,-0.85041 -3.93418,-2.39974 -3.93418,-3.93484 0,-0.69167 0.20648,-1.38519 0.45884,-1.54115 0.25236,-0.15597 1.7702,0.24105 3.37298,0.88226 5.95632,2.38291 10.71364,0.93066 10.71364,-3.2705 0,-1.74425 -1.27969,-2.87391 -5.70583,-5.03685 -6.13093,-2.99603 -7.93053,-5.05497 -7.93053,-9.07338 0,-2.8101 1.32725,-4.89489 4.1085,-6.45343 1.72018,-0.96394 2.61408,-1.13636 5.8915,-1.13636 5.03133,0 6.97153,0.97249 7.19004,3.60386 0.16254,1.95745 0.50118,1.91861 -4.4527,0.51059 -4.26043,-1.21092 -7.73734,0.19559 -7.73734,3.12997 0,2.23122 1.39516,3.61191 5.75136,5.69167 6.31816,3.01645 7.87695,4.66355 7.882,8.32851 0.004,2.77852 -0.85941,4.82374 -2.68402,6.35905 -2.81741,2.37069 -9.08046,3.3111 -12.92426,1.9406 z"
       id="path867" />
    <path
       style="opacity:1;fill:#6cb43d;fill-opacity:1;stroke:none;stroke-width:0.454545"
       d="m 223.63592,377.96466 c -3.97549,-0.84954 -6.17404,-2.74346 -8.19049,-7.05557 -1.15064,-2.46062 -1.27301,-3.19392 -1.25159,-7.5 0.0293,-5.88535 1.12674,-9.12967 4.09101,-12.09394 4.69418,-4.69419 14.5594,-4.37663 18.21079,0.58619 2.75613,3.74603 3.94519,8.07779 2.90599,10.58662 l -0.56982,1.37568 -7.78576,0.0108 c -7.65814,0.0107 -10.84135,0.36292 -11.78224,1.30381 -0.57955,0.57955 0.33457,3.61988 1.71288,5.69701 2.19242,3.30397 7.72989,4.34623 13.49309,2.53966 3.54215,-1.11035 3.40616,-1.11014 3.69493,-0.006 0.45527,1.74093 -0.21152,2.79366 -2.35526,3.71847 -2.39503,1.03323 -9.09865,1.4942 -12.17353,0.8371 z m 6.47741,-18.19193 h 4.22616 l -0.26084,-1.70455 c -0.58493,-3.82234 -3.26591,-6.19755 -6.99537,-6.19755 -3.7312,0 -6.39695,2.37093 -7.46921,6.64315 -0.26284,1.04722 -0.14331,1.21669 0.99186,1.40635 0.70989,0.11861 2.18858,0.13396 3.28597,0.0341 1.0974,-0.0998 3.89704,-0.18152 6.22143,-0.18152 z"
       id="path869" />
    <path
       style="opacity:1;fill:#6cb43d;fill-opacity:1;stroke:none;stroke-width:0.454545"
       d="m 253.4096,377.7214 c -2.65896,-0.85482 -5.45383,-3.89831 -6.60206,-7.18934 -1.21868,-3.49298 -1.10276,-11.03835 0.22117,-14.3957 1.25494,-3.18239 3.3049,-5.66745 5.70736,-6.91871 2.46453,-1.28358 9.25815,-1.41621 11.5068,-0.22463 1.85041,0.98054 3.33559,2.87926 3.33559,4.26436 0,1.67814 -1.07858,1.72874 -4.14862,0.19463 -7.34125,-3.66847 -12.25581,0.28694 -12.25915,9.86659 -0.003,9.67462 6.03675,13.64599 13.37898,8.79665 1.35854,-0.89728 1.91101,-1.04324 2.5,-0.66047 1.02425,0.66563 0.81018,2.73256 -0.41846,4.04039 -2.16517,2.30471 -9.26102,3.4995 -13.22161,2.22623 z"
       id="path871" />
    <path
       style="opacity:1;fill:#6cb43d;fill-opacity:1;stroke:none;stroke-width:0.454545"
       d="m 280.0257,377.53949 c -2.63993,-1.19884 -4.19735,-3.44322 -4.80442,-6.92362 -0.27712,-1.58873 -0.52489,-7.13942 -0.55061,-12.33487 -0.0393,-7.93178 0.0626,-9.5176 0.63507,-9.89115 0.96607,-0.63034 3.25034,-0.33586 3.67511,0.47379 0.19674,0.375 0.52418,5.32076 0.72766,10.99058 0.41247,11.49359 0.53439,11.92695 3.86905,13.75335 1.56575,0.85756 1.663,0.85901 3.76514,0.0562 1.18683,-0.45325 3.03189,-1.66757 4.10013,-2.69847 l 1.94225,-1.87438 0.18402,-9.83957 c 0.13647,-7.29692 0.34028,-10.02786 0.78871,-10.56819 0.85301,-1.0278 3.07754,-0.93625 3.65921,0.1506 0.29538,0.55194 0.47053,6.13543 0.47053,15 v 14.1208 h -2.04008 c -2.02861,0 -2.04172,-0.0102 -2.33082,-1.81819 -0.15991,-1 -0.3718,-1.81818 -0.47088,-1.81818 -0.0991,0 -1.21292,0.71044 -2.47522,1.57875 -3.83285,2.63653 -7.70074,3.2066 -11.14485,1.64256 z"
       id="path873" />
    <path
       style="opacity:1;fill:#6cb43d;fill-opacity:1;stroke:none;stroke-width:0.454545"
       d="m 308.59301,377.15909 c -0.43982,-1.07108 -0.41907,-26.37403 0.0229,-27.95454 0.27292,-0.97594 0.62173,-1.24848 1.59091,-1.24304 1.74703,0.01 2.20205,0.43271 2.56001,2.3794 0.37126,2.01906 0.66231,2.09083 2.12482,0.52395 2.17647,-2.33179 6.7028,-3.70923 8.42028,-2.56245 0.92839,0.61991 1.6244,2.457 1.34804,3.55811 -0.25585,1.01937 -0.48223,1.09403 -3.31726,1.09403 h -3.04267 l -2.33457,2.46876 c -2.22259,2.35036 -2.3486,2.61743 -2.62725,5.56818 -0.16098,1.70468 -0.29415,6.21874 -0.29592,10.03124 l -0.003,6.93182 h -2.05972 c -1.53418,0 -2.14307,-0.20297 -2.38637,-0.79546 z"
       id="path875" />
    <path
       style="opacity:1;fill:#6cb43d;fill-opacity:1;stroke:none;stroke-width:0.454545"
       d="m 330.84618,363.43123 c 0.10504,-10.34553 0.30114,-14.67683 0.68169,-15.05696 0.33697,-0.3366 1.1342,-0.42108 2.15909,-0.22881 l 1.62486,0.30482 v 14.75214 14.75213 h -2.30655 -2.30656 z"
       id="path877" />
    <path
       style="opacity:1;fill:#6cb43d;fill-opacity:1;stroke:none;stroke-width:0.454545"
       d="m 331.70715,342.37642 c -2.02961,-1.02564 -2.04817,-4.25178 -0.0307,-5.33151 1.02529,-0.54872 3.44124,-0.2267 3.90286,0.5202 0.5101,0.82537 0.28593,3.66758 -0.3357,4.25624 -0.99221,0.93958 -2.35295,1.15315 -3.53649,0.55507 z"
       id="path879" />
    <path
       style="opacity:1;fill:#6cb43d;fill-opacity:1;stroke:none;stroke-width:0.454545"
       d="m 352.14574,377.91173 c -2.84455,-0.55743 -4.43135,-2.2762 -4.99753,-5.41316 -0.24803,-1.37421 -0.57838,-6.28475 -0.73411,-10.9123 l -0.28314,-8.41374 -2.11412,-0.67717 c -1.73936,-0.55714 -2.13885,-0.89096 -2.25369,-1.88323 -0.16718,-1.44443 1.29141,-2.65758 3.19527,-2.65758 1.15625,0 1.26249,-0.14371 1.26249,-1.70755 0,-2.16559 0.72098,-4.71059 1.46897,-5.18535 1.99454,-1.26598 3.98281,0.20244 3.99179,2.94809 0.0118,3.60334 0.18915,3.81132 3.55681,4.17024 3.69734,0.39405 4.6188,0.84567 4.6188,2.26373 0,1.47112 -0.55923,1.75207 -4.54546,2.28356 l -3.40909,0.45455 v 8.18182 c 0,10.30041 0.21673,11.44297 2.33878,12.32961 1.29223,0.53994 1.91401,0.567 3.20876,0.1397 1.76257,-0.5817 2.39309,-0.15446 2.39309,1.6216 0,1.44824 -0.63665,2.08207 -2.53322,2.52202 -2.05046,0.47565 -2.43068,0.47088 -5.1644,-0.0648 z"
       id="path881" />
    <path
       style="opacity:1;fill:#6cb43d;fill-opacity:1;stroke:none;stroke-width:0.454545"
       d="m 370.87892,388.96563 c -0.66517,-0.44899 0.13938,-3.59013 1.99326,-7.78208 l 1.11295,-2.51656 -3.03531,-7.96986 c -1.66941,-4.38342 -3.93743,-10.31324 -5.04003,-13.17738 -1.1026,-2.86414 -2.12213,-6.06407 -2.26562,-7.11095 -0.22834,-1.66585 -0.13927,-1.94202 0.71359,-2.21271 1.49149,-0.47338 3.49118,0.14311 4.07906,1.25754 0.2904,0.5505 2.13352,5.49188 4.09583,10.98084 1.96231,5.48897 3.77147,10.04781 4.02036,10.13077 0.56671,0.18891 0.82114,-0.44502 4.40965,-10.98695 1.61078,-4.73194 3.32032,-9.12967 3.79899,-9.77273 1.96146,-2.63509 4.98774,-2.21497 4.37808,0.60778 -0.29512,1.36642 -5.28644,15.65736 -8.50786,24.35939 -0.87921,2.375 -2.35166,6.36363 -3.27212,8.86363 -0.92047,2.5 -1.80894,4.6884 -1.97438,4.8631 -0.49883,0.52673 -3.89609,0.87817 -4.50645,0.46617 z"
       id="path883" />
    <path
       style="opacity:1;fill:#6cb43d;fill-opacity:1;stroke:none;stroke-width:0.454545"
       d="m 200.42058,189.61659 c -0.9849,-1.04839 -0.99006,-1.10917 -0.20969,-2.46888 0.75908,-1.32264 0.75994,-1.47816 0.0168,-3.03662 -0.71464,-1.49863 -0.72106,-1.73757 -0.0732,-2.72627 0.65306,-0.9967 0.63846,-1.22347 -0.18192,-2.82516 -1.09856,-2.1448 -3.93983,-6.7339 -5.71966,-9.23814 -0.95274,-1.34053 -1.38575,-2.56287 -1.53181,-4.32416 -0.27172,-3.27659 0.0848,-4.46287 1.96782,-6.54712 4.47328,-4.95138 13.10765,-2.11856 13.74451,4.50939 0.27211,2.83189 -0.40632,4.75415 -2.62587,7.44011 l -1.81736,2.19925 v 7.82001 7.82001 l -1.27988,1.22621 -1.27989,1.22621 z m 1.82921,-26.05068 c 1.03574,-0.93733 1.07746,-3.22226 0.079,-4.32557 -1.59753,-1.76525 -4.70228,-0.44496 -4.70228,1.99964 0,2.68128 2.71909,4.04922 4.6233,2.32593 z"
       id="path889" />
    <path
       style="fill:#ffffff;stroke:none;stroke-width:0.454545;opacity:1"
       d="m 193.56418,201.95038 c -1.125,-0.23217 -4.19318,-1.48166 -6.81818,-2.77664 -5.38578,-2.65694 -8.62879,-5.58664 -12.39068,-11.19366 -3.86257,-5.75705 -4.88205,-9.2375 -4.88205,-16.66701 0,-6.3031 0.53802,-8.80513 2.98772,-13.89426 1.76704,-3.67093 2.65871,-4.88451 6.02054,-8.19399 12.58361,-12.38767 30.30603,-12.81329 42.83316,-1.02868 3.91776,3.68556 6.4633,7.37026 8.33088,12.05912 1.74118,4.37147 2.23941,7.63311 1.96083,12.83633 -0.42348,7.90933 -2.97802,13.35995 -9.16888,19.56366 -4.34377,4.35279 -8.65431,7.02589 -13.87334,8.6033 -2.94529,0.89019 -12.0125,1.30839 -15,0.69183 z m 9.63422,-12.12565 1.27487,-1.22141 v -7.88287 -7.88288 l 1.80828,-2.28764 c 4.10377,-5.19166 3.3098,-11.35694 -1.79462,-13.93561 -5.6818,-2.87036 -12.28638,0.78426 -12.28638,6.79861 0,2.99851 0.63636,4.62922 3.57934,9.17222 3.84244,5.93149 4.37404,7.15837 3.80676,8.78567 -0.34274,0.9832 -0.30124,1.71627 0.15917,2.81124 0.53726,1.27777 0.52754,1.66546 -0.0707,2.82236 -0.70151,1.35658 -0.61529,1.80835 0.61958,3.24626 0.92483,1.07689 1.40926,1.00583 2.90372,-0.42595 z"
       id="path848" />
    <path
       style="opacity:1;fill:#ffffff;stroke:none;stroke-width:0.454545"
       d="m 193.10964,202.13527 c -10.11614,-3.72513 -13.80154,-6.5006 -19.10667,-14.3892 -3.90113,-5.80089 -4.67222,-8.55658 -4.62737,-16.53707 0.0411,-7.31216 0.35952,-8.84004 2.96825,-14.24177 2.53659,-5.25238 7.96769,-10.78184 13.26579,-13.50604 10.17966,-5.23422 18.74737,-5.46212 28.37506,-0.75478 7.59205,3.71205 13.8102,10.98403 16.65365,19.47609 1.03302,3.08516 1.21989,4.42871 1.23278,8.86363 0.0178,6.12367 -0.65256,8.90467 -3.4514,14.31819 -1.35328,2.61751 -2.90183,4.66734 -5.52688,7.31601 -3.83599,3.87049 -7.0744,6.01814 -12.30589,8.16103 -2.91742,1.19501 -3.68083,1.30362 -9.97732,1.4195 -3.75,0.069 -7.125,0.0125 -7.5,-0.12559 z m 10.90909,-21.35844 v -7.8265 l 1.65681,-1.97483 c 2.12017,-2.52711 2.88864,-4.38264 2.88864,-6.97482 0,-3.98683 -2.24164,-6.967 -6.00213,-7.9796 -3.44088,-0.92653 -6.76572,0.31383 -8.83143,3.29465 -1.05661,1.52469 -1.15941,2.03702 -1.00847,5.02596 0.16088,3.18598 0.28676,3.51202 2.9458,7.62996 4.19009,6.48901 4.91489,8.07783 4.25098,9.31836 -0.42424,0.7927 -0.42644,1.39161 -0.01,2.65421 0.42127,1.27644 0.41327,1.9758 -0.0368,3.22056 -0.52897,1.46285 -0.4885,1.68209 0.50582,2.74051 l 1.0808,1.15045 1.27989,-1.22621 1.27989,-1.22621 z"
       id="path1560" />
    <path
       style="opacity:1;fill:#ffffff;stroke:none;stroke-width:0.454545"
       d="m 199.01227,163.40503 c -1.96536,-1.59144 -0.91949,-4.63162 1.59333,-4.63162 1.36181,0 2.04949,0.8607 2.04949,2.56513 0,1.00814 -0.31939,1.69794 -1.01023,2.18182 -1.27194,0.8909 -1.3967,0.88543 -2.63259,-0.11533 z"
       id="path1562" />
  </g>
</svg>
